<mxfile host="app.diagrams.net" agent="Mozilla/5.0 (Windows NT 10.0; Win64; x64) AppleWebKit/537.36 (KHTML, like Gecko) Chrome/130.0.0.0 Safari/537.36" version="24.8.4">
  <diagram name="PÃ¡gina-1" id="BCHF-5Q5EMjY2CzNp5F7">
    <mxGraphModel dx="1313" dy="724" grid="0" gridSize="10" guides="1" tooltips="1" connect="1" arrows="1" fold="1" page="1" pageScale="1" pageWidth="700" pageHeight="1000" math="0" shadow="0">
      <root>
        <mxCell id="0" />
        <mxCell id="1" parent="0" />
        <mxCell id="UvF5SmiHXKKENpEFAL-r-3" value="&lt;div style=&quot;&quot;&gt;&lt;span style=&quot;font-size: 33px;&quot;&gt;&lt;b&gt;Primera parte del juego&lt;/b&gt;&lt;/span&gt;&lt;/div&gt;" style="text;html=1;align=center;verticalAlign=middle;whiteSpace=wrap;rounded=0;" parent="1" vertex="1">
          <mxGeometry x="152" y="8" width="392" height="167" as="geometry" />
        </mxCell>
        <mxCell id="UvF5SmiHXKKENpEFAL-r-7" value="&lt;font style=&quot;font-size: 24px;&quot;&gt;Siguente&lt;/font&gt;" style="rounded=0;whiteSpace=wrap;html=1;" parent="1" vertex="1">
          <mxGeometry x="290" y="860" width="120" height="80" as="geometry" />
        </mxCell>
        <mxCell id="y9TVDUa1JKEA_eRrkemc-124" value="&lt;font style=&quot;font-size: 24px;&quot;&gt;Herammeinta 1&lt;/font&gt;" style="rounded=0;whiteSpace=wrap;html=1;" vertex="1" parent="1">
          <mxGeometry x="368" y="152" width="222" height="80" as="geometry" />
        </mxCell>
        <mxCell id="y9TVDUa1JKEA_eRrkemc-127" value="&lt;font style=&quot;font-size: 24px;&quot;&gt;Herammeinta 3&lt;/font&gt;" style="rounded=0;whiteSpace=wrap;html=1;" vertex="1" parent="1">
          <mxGeometry x="95" y="530" width="222" height="80" as="geometry" />
        </mxCell>
        <mxCell id="y9TVDUa1JKEA_eRrkemc-128" value="&lt;font style=&quot;font-size: 24px;&quot;&gt;Herammeinta 2&lt;/font&gt;" style="rounded=0;whiteSpace=wrap;html=1;" vertex="1" parent="1">
          <mxGeometry x="428" y="309" width="222" height="80" as="geometry" />
        </mxCell>
        <mxCell id="y9TVDUa1JKEA_eRrkemc-129" value="&lt;font style=&quot;font-size: 24px;&quot;&gt;Herammeinta 4&lt;/font&gt;" style="rounded=0;whiteSpace=wrap;html=1;" vertex="1" parent="1">
          <mxGeometry x="400" y="450" width="222" height="80" as="geometry" />
        </mxCell>
        <mxCell id="y9TVDUa1JKEA_eRrkemc-132" value="&lt;span style=&quot;font-size: 24px;&quot;&gt;Caballo&lt;/span&gt;" style="rounded=0;whiteSpace=wrap;html=1;" vertex="1" parent="1">
          <mxGeometry x="68" y="309" width="222" height="80" as="geometry" />
        </mxCell>
        <mxCell id="y9TVDUa1JKEA_eRrkemc-133" value="&lt;span style=&quot;font-size: 24px;&quot;&gt;Partes del caballo 3&lt;/span&gt;" style="rounded=0;whiteSpace=wrap;html=1;" vertex="1" parent="1">
          <mxGeometry x="259" y="685" width="222" height="80" as="geometry" />
        </mxCell>
      </root>
    </mxGraphModel>
  </diagram>
</mxfile>
